<svg height="512" viewBox="0 0 64 64" width="512" xmlns="http://www.w3.org/2000/svg"><path d="m58 46h-15.79c1.881-2.785 9.79-14.806 9.79-20a11 11 0 0 0 -22 0c0 5.194 7.909 17.215 9.79 20h-10.79v-12a1 1 0 0 0 -.4-.8l-8-6a1 1 0 0 0 -1.2 0l-8 6a1 1 0 0 0 -.4.8v12h-9a1 1 0 0 0 0 2h56a1 1 0 0 0 0-2zm-17-29a9.01 9.01 0 0 1 9 9c0 3.894-5.888 13.541-9 18.217-3.112-4.675-9-14.317-9-18.217a9.01 9.01 0 0 1 9-9zm-23 29v-6h4v6zm6 0v-7a1 1 0 0 0 -1-1h-6a1 1 0 0 0 -1 1v7h-3v-11.5l7-5.25 7 5.25v11.5z"/><path d="m62 46h-1a1 1 0 0 0 0 2h1a1 1 0 0 0 0-2z"/><path d="m46 26a5 5 0 1 0 -5 5 5.006 5.006 0 0 0 5-5zm-8 0a3 3 0 1 1 3 3 3 3 0 0 1 -3-3z"/></svg>