<?xml version="1.0"?>
<svg xmlns="http://www.w3.org/2000/svg" id="Layer_1_1_" enable-background="new 0 0 64 64" height="512px" viewBox="0 0 64 64" width="512px" class=""><g><path d="m41.707 20.707 6.707-6.707h7.77c.414 1.161 1.514 2 2.816 2 1.654 0 3-1.346 3-3s-1.346-3-3-3c-1.302 0-2.402.839-2.816 2h-8.184c-.265 0-.52.105-.707.293l-6.707 6.707h-2.85c-.221-.316-.467-.614-.736-.89v-3.696l3.707-3.707c.188-.187.293-.442.293-.707v-2.184c1.161-.414 2-1.514 2-2.816 0-1.654-1.346-3-3-3s-3 1.346-3 3c0 1.302.839 2.402 2 2.816v1.77l-3.707 3.707c-.188.187-.293.442-.293.707v2.685c-.622-.297-1.294-.503-2-.605v-8.264c1.161-.414 2-1.514 2-2.816 0-1.654-1.346-3-3-3s-3 1.346-3 3c0 1.302.839 2.402 2 2.816v8.264c-.706.102-1.378.308-2 .605v-2.685c0-.265-.105-.52-.293-.707l-3.707-3.707v-1.77c1.161-.414 2-1.514 2-2.816 0-1.654-1.346-3-3-3s-3 1.346-3 3c0 1.302.839 2.402 2 2.816v2.184c0 .265.105.52.293.707l3.707 3.707v3.696c-.269.275-.515.573-.736.89h-2.85l-6.707-6.707c-.187-.188-.442-.293-.707-.293h-8.184c-.414-1.161-1.514-2-2.816-2-1.654 0-3 1.346-3 3s1.346 3 3 3c1.302 0 2.402-.839 2.816-2h7.77l6.707 6.707c.187.188.442.293.707.293h2.295c-.19.634-.295 1.305-.295 2h-17.184c-.414-1.161-1.514-2-2.816-2-1.654 0-3 1.346-3 3s1.346 3 3 3c1.302 0 2.402-.839 2.816-2h17.486c.561 1.881 1.897 3.45 3.698 4.299v10.286l-3.707 3.707c-.188.188-.293.443-.293.708v10c0 .265.105.52.293.707l3.707 3.707v2.586c0 .552.448 1 1 1h19c.552 0 1-.448 1-1v-2.764l.895-1.789c.069-.138.105-.292.105-.447v-19.5c0-1.93-1.57-3.5-3.5-3.5-.98 0-1.864.407-2.5 1.058-.636-.651-1.52-1.058-2.5-1.058s-1.864.407-2.5 1.058c-.636-.651-1.52-1.058-2.5-1.058-.539 0-1.044.133-1.5.351v-4.629c1.301-.908 2.246-2.224 2.696-3.722h17.488c.414 1.161 1.514 2 2.816 2 1.654 0 3-1.346 3-3s-1.346-3-3-3c-1.302 0-2.402.839-2.816 2h-17.184c0-.695-.105-1.366-.295-2h2.295c.265 0 .52-.105.707-.293zm17.293-8.707c.551 0 1 .449 1 1s-.449 1-1 1-1-.449-1-1 .449-1 1-1zm-19-8c.551 0 1 .449 1 1s-.449 1-1 1-1-.449-1-1 .449-1 1-1zm-16 0c.551 0 1 .449 1 1s-.449 1-1 1-1-.449-1-1 .449-1 1-1zm-19 10c-.551 0-1-.449-1-1s.449-1 1-1 1 .449 1 1-.449 1-1 1zm0 11c-.551 0-1-.449-1-1s.449-1 1-1 1 .449 1 1-.449 1-1 1zm54-2c.551 0 1 .449 1 1s-.449 1-1 1-1-.449-1-1 .449-1 1-1zm-27-19c.551 0 1 .449 1 1s-.449 1-1 1-1-.449-1-1 .449-1 1-1zm5.5 31c.827 0 1.5.673 1.5 1.5v8.5h2v-8.5c0-.827.673-1.5 1.5-1.5s1.5.673 1.5 1.5v8.5h2v-8.5c0-.827.673-1.5 1.5-1.5s1.5.673 1.5 1.5v19.264l-.895 1.789c-.069.138-.105.292-.105.447v2h-17v-2c0-.265-.105-.52-.293-.707l-3.707-3.707v-9.172l2-2v5.586h2v-22.5c0-.827.673-1.5 1.5-1.5s1.5.673 1.5 1.5v11 8.5h2v-8.5c0-.827.673-1.5 1.5-1.5zm-1.5-9.011v-.489c0-1.93-1.57-3.5-3.5-3.5s-3.5 1.57-3.5 3.5v1.497c-1.234-.922-2-2.392-2-3.997 0-2.757 2.243-5 5-5s5 2.243 5 5c0 1.093-.364 2.138-1 2.989z" data-original="#000000" class="active-path" data-old_color="#000000" fill="#FFFFFF"/><path d="m22 27h2v2h-2z" data-original="#000000" class="active-path" data-old_color="#000000" fill="#FFFFFF"/><path d="m18 27h2v2h-2z" data-original="#000000" class="active-path" data-old_color="#000000" fill="#FFFFFF"/><path d="m14 27h2v2h-2z" data-original="#000000" class="active-path" data-old_color="#000000" fill="#FFFFFF"/></g> </svg>
