<?xml version="1.0"?>
<svg xmlns="http://www.w3.org/2000/svg" viewBox="0 0 64 64" width="512px" height="512px" class=""><g><g id="Money_making" data-name="Money making"><path d="M32,19A13,13,0,1,0,45,32,13.015,13.015,0,0,0,32,19Zm0,11a6.033,6.033,0,0,1,4.287,1.793l.008.008A6.01,6.01,0,0,1,34,41.659V43a1,1,0,0,1-1,1H30a1,1,0,0,1-1-1V41.2A6.025,6.025,0,0,1,26,36a1,1,0,0,1,1-1h3a1,1,0,0,1,1,1,1,1,0,1,0,1-1,6,6,0,0,1-2-11.659V22a1,1,0,0,1,1-1h3a1,1,0,0,1,1,1v1.8A6.025,6.025,0,0,1,38,29a1,1,0,0,1-1,1H34a1,1,0,0,1-1-1,1,1,0,1,0-1,1Z" data-original="#000000" class="active-path" data-old_color="#000000" fill="#FFFFFF"/><path d="M32,26a3.006,3.006,0,0,1,2.829,2h1.043A4.046,4.046,0,0,0,33.6,25.324,1,1,0,0,1,33,24.41V23H32v1.1a1,1,0,0,1-.8.981A4,4,0,0,0,32,33a3,3,0,1,1-2.829,4H28.128a4.046,4.046,0,0,0,2.277,2.676A1,1,0,0,1,31,40.59V42h1V40.9a1,1,0,0,1,.8-.981A4.008,4.008,0,0,0,34.869,33.2,4.045,4.045,0,0,0,32,32a3,3,0,0,1,0-6Z" data-original="#000000" class="active-path" data-old_color="#000000" fill="#FFFFFF"/><path d="M55,29H51.6a1,1,0,0,1-.981-.8,18.81,18.81,0,0,0-2.773-6.677,1,1,0,0,1,.128-1.261l2.411-2.4-4.244-4.243-2.4,2.41a1,1,0,0,1-1.259.128A18.893,18.893,0,0,0,35.8,13.38a1,1,0,0,1-.8-.98V9H29v3.4a1,1,0,0,1-.8.98,18.893,18.893,0,0,0-6.679,2.774,1,1,0,0,1-1.259-.128l-2.4-2.41-4.244,4.243,2.411,2.4a1,1,0,0,1,.128,1.261A18.81,18.81,0,0,0,13.381,28.2a1,1,0,0,1-.981.8H9v6h3.4a1,1,0,0,1,.981.8,18.81,18.81,0,0,0,2.773,6.677,1,1,0,0,1-.128,1.26l-2.411,2.4,4.244,4.243,2.4-2.41a1,1,0,0,1,1.259-.128A18.893,18.893,0,0,0,28.2,50.62a1,1,0,0,1,.8.98V55h6V51.6a1,1,0,0,1,.8-.98,18.893,18.893,0,0,0,6.679-2.774,1,1,0,0,1,1.259.128l2.4,2.41,4.244-4.243-2.411-2.4a1,1,0,0,1-.128-1.26A18.81,18.81,0,0,0,50.619,35.8,1,1,0,0,1,51.6,35H55ZM32,47A15,15,0,1,1,47,32,15.017,15.017,0,0,1,32,47Z" data-original="#000000" class="active-path" data-old_color="#000000" fill="#FFFFFF"/><path d="M60.2,15.02a1,1,0,0,0-1.176.784l-.455,2.271A30,30,0,0,0,2,32a30.277,30.277,0,0,0,.447,5.188,1,1,0,0,0,.985.829A1.017,1.017,0,0,0,3.6,38a1,1,0,0,0,.814-1.157A28.023,28.023,0,0,1,32,4,28.06,28.06,0,0,1,57.09,19.6L54.2,19.02a1,1,0,0,0-.392,1.96l5,1A.948.948,0,0,0,59,22a1,1,0,0,0,.979-.8l1-5A1,1,0,0,0,60.2,15.02Z" data-original="#000000" class="active-path" data-old_color="#000000" fill="#FFFFFF"/><path d="M61.564,26.882a1,1,0,0,0-1.97.34A28.025,28.025,0,0,1,32,60,28.068,28.068,0,0,1,6.91,44.4L9.8,44.98a1,1,0,0,0,.392-1.96l-5-1A1,1,0,0,0,4.02,42.8l-1,5A1,1,0,0,0,3.8,48.98.948.948,0,0,0,4,49a1,1,0,0,0,.979-.8l.455-2.274a30,30,0,0,0,56.129-19.04Z" data-original="#000000" class="active-path" data-old_color="#000000" fill="#FFFFFF"/></g></g> </svg>
