<?xml version="1.0"?>
<svg xmlns="http://www.w3.org/2000/svg" height="512px" version="1.1" viewBox="-58 1 511 511.99995" width="512px" class=""><g><g id="surface1">
<path d="M 314.609375 123.257812 L 381.113281 123.257812 L 279.527344 16.660156 L 279.527344 88.3125 C 279.527344 107.683594 295.101562 123.257812 314.609375 123.257812 Z M 314.609375 123.257812 " data-original="#000000" class="active-path" data-old_color="#000000" fill="#FFFFFF"/>
<path d="M 257.855469 88.3125 L 257.855469 0 L 49.804688 0 C 22.847656 0 0.5 22.214844 0.5 49.167969 L 0.5 462.832031 C 0.5 489.789062 22.847656 512 49.804688 512 L 346.710938 512 C 373.664062 512 396.011719 489.785156 396.011719 462.832031 L 396.011719 144.929688 L 314.605469 144.929688 C 283.183594 144.929688 257.855469 119.601562 257.855469 88.3125 Z M 111.570312 264.804688 C 115.902344 260.742188 122.8125 261.011719 126.875 265.347656 L 187.421875 330.363281 L 187.421875 175.679688 C 187.421875 169.71875 192.296875 164.84375 198.257812 164.84375 C 204.21875 164.84375 209.09375 169.71875 209.09375 175.679688 L 209.09375 330.496094 L 269.640625 265.480469 C 273.703125 261.148438 280.613281 260.875 284.945312 264.9375 C 289.28125 269.003906 289.550781 275.910156 285.488281 280.246094 L 206.113281 365.445312 C 204.082031 367.609375 201.238281 368.828125 198.121094 368.828125 C 195.007812 368.828125 192.296875 367.609375 190.132812 365.445312 L 110.757812 280.246094 C 106.964844 275.773438 107.234375 269.003906 111.570312 264.804688 Z M 320.566406 429.375 C 320.566406 435.335938 315.691406 440.210938 309.730469 440.210938 L 86.78125 440.210938 C 80.820312 440.210938 75.945312 435.335938 75.945312 429.375 C 75.945312 423.414062 80.820312 418.539062 86.78125 418.539062 L 309.867188 418.539062 C 315.828125 418.539062 320.566406 423.417969 320.566406 429.375 Z M 320.566406 429.375 " data-original="#000000" class="active-path" data-old_color="#000000" fill="#FFFFFF"/>
</g></g> </svg>
