<?xml version="1.0" encoding="iso-8859-1"?>
<!-- Generator: Adobe Illustrator 19.1.0, SVG Export Plug-In . SVG Version: 6.00 Build 0)  -->
<svg version="1.1" id="Capa_1" xmlns="http://www.w3.org/2000/svg" xmlns:xlink="http://www.w3.org/1999/xlink" x="0px" y="0px"
	 viewBox="0 0 64.002 64.002" style="enable-background:new 0 0 64.002 64.002;" xml:space="preserve">
<g>
	<g>
		<path d="M32.001,64.001c8.547,0,16.583-3.329,22.627-9.374c6.045-6.044,9.374-14.079,9.374-22.626s-3.329-16.582-9.374-22.626
			c-6.044-6.045-14.08-9.374-22.627-9.374c-8.548,0-16.583,3.329-22.627,9.374C3.329,15.419,0,23.454,0,32.001
			s3.329,16.582,9.374,22.626C15.418,60.672,23.453,64.001,32.001,64.001z M10.788,10.789c5.666-5.667,13.199-8.788,21.213-8.788
			c8.013,0,15.547,3.121,21.213,8.788c5.667,5.666,8.788,13.199,8.788,21.212s-3.121,15.546-8.788,21.212
			c-5.666,5.667-13.2,8.788-21.213,8.788c-8.014,0-15.547-3.121-21.213-8.788C5.121,47.547,2,40.014,2,32.001
			S5.121,16.455,10.788,10.789z"/>
		<rect x="31.001" y="25.001" width="2" height="22"/>
		<rect x="31.001" y="17.001" width="2" height="4"/>
	</g>
</g>
<g>
</g>
<g>
</g>
<g>
</g>
<g>
</g>
<g>
</g>
<g>
</g>
<g>
</g>
<g>
</g>
<g>
</g>
<g>
</g>
<g>
</g>
<g>
</g>
<g>
</g>
<g>
</g>
<g>
</g>
</svg>
