<?xml version="1.0"?>
<svg xmlns="http://www.w3.org/2000/svg" viewBox="0 0 64 64" width="512" height="512"><g id="Receipt"><path d="M45,53.64a1,1,0,0,0-1,1V60H4V4H34v9a1,1,0,0,0,1,1h9V31.36a1,1,0,0,0,2,0V13a1,1,0,0,0-.293-.707l-10-10A1,1,0,0,0,35,2H3A1,1,0,0,0,2,3V61a1,1,0,0,0,1,1H45a1,1,0,0,0,1-1V54.64A1,1,0,0,0,45,53.64ZM36,12V5.414L42.586,12Z"/><path d="M17,32.14a1,1,0,0,0,.451-.108l8-4.04A1,1,0,0,0,26,27.1V17a1,1,0,0,0-.553-.895l-8-4a1,1,0,0,0-.894,0l-8,4A1,1,0,0,0,8,17V27a1,1,0,0,0,.54.888l8,4.139A.987.987,0,0,0,17,32.14Zm7-5.656-6,3.031v-7.9l6-3ZM17,14.118,22.764,17,17,19.882,15.236,19,17.447,17.9l-.894-1.79L13,17.882,11.236,17ZM16,29.5l-6-3.1V18.618l2,1V23h2V20.618l2,1Z"/><path d="M39,18H35a1,1,0,0,0,0,2h4a1,1,0,0,0,0-2Z"/><path d="M39,22H31a1,1,0,0,0,0,2h8a1,1,0,0,0,0-2Z"/><path d="M39,26H31a1,1,0,0,0,0,2h8a1,1,0,0,0,0-2Z"/><path d="M31,20h1a1,1,0,0,0,0-2H31a1,1,0,0,0,0,2Z"/><path d="M39,53H29a1,1,0,0,0,0,2H39a1,1,0,0,0,0-2Z"/><path d="M39,56H33a1,1,0,0,0,0,2h6a1,1,0,0,0,0-2Z"/><path d="M52,40c1.221,0,2,.592,2,1h2c0-1.421-1.259-2.572-3-2.9V36H51v2.1c-1.741.326-3,1.477-3,2.9,0,1.683,1.757,3,4,3,1.221,0,2,.592,2,1s-.779,1-2,1-2-.592-2-1H48c0,1.421,1.259,2.572,3,2.9V50h2V47.9c1.741-.326,3-1.477,3-2.9,0-1.683-1.757-3-4-3-1.221,0-2-.592-2-1S50.779,40,52,40Z"/><path d="M52,32A11,11,0,1,0,63,43,11.013,11.013,0,0,0,52,32Zm0,20a9,9,0,1,1,9-9A9.01,9.01,0,0,1,52,52Z"/><path d="M11,37H9a1,1,0,0,0,0,2h2a1,1,0,0,0,0-2Z"/><path d="M35,37H15a1,1,0,0,0,0,2H35a1,1,0,0,0,0-2Z"/><path d="M11,41H9a1,1,0,0,0,0,2h2a1,1,0,0,0,0-2Z"/><path d="M35,41H15a1,1,0,0,0,0,2H35a1,1,0,0,0,0-2Z"/><path d="M11,45H9a1,1,0,0,0,0,2h2a1,1,0,0,0,0-2Z"/><path d="M15,47H35a1,1,0,0,0,0-2H15a1,1,0,0,0,0,2Z"/></g></svg>
